solid ai5_lattice
facet normal 0.0 0.0 0.99999999999975
  outer loop
    vertex 0.0 0.0 0.0
    vertex 100.0 0.0 0.0
    vertex 100.0 40.0 0.0
  endloop
endfacet
facet normal 0.0 0.0 0.99999999999975
  outer loop
    vertex 0.0 0.0 0.0
    vertex 100.0 40.0 0.0
    vertex 0.0 40.0 0.0
  endloop
endfacet
facet normal 0.0 0.0 0.99999999999975
  outer loop
    vertex 0.0 0.0 2.0
    vertex 100.0 0.0 2.0
    vertex 100.0 40.0 2.0
  endloop
endfacet
facet normal 0.0 0.0 0.99999999999975
  outer loop
    vertex 0.0 0.0 2.0
    vertex 100.0 40.0 2.0
    vertex 0.0 40.0 2.0
  endloop
endfacet
facet normal 0.0 -0.999999999995 0.0
  outer loop
    vertex 0.0 0.0 0.0
    vertex 100.0 0.0 0.0
    vertex 100.0 0.0 2.0
  endloop
endfacet
facet normal 0.0 -0.999999999995 0.0
  outer loop
    vertex 0.0 0.0 0.0
    vertex 100.0 0.0 2.0
    vertex 0.0 0.0 2.0
  endloop
endfacet
facet normal 0.9999999999875 0.0 0.0
  outer loop
    vertex 100.0 0.0 0.0
    vertex 100.0 40.0 0.0
    vertex 100.0 40.0 2.0
  endloop
endfacet
facet normal 0.9999999999875 0.0 0.0
  outer loop
    vertex 100.0 0.0 0.0
    vertex 100.0 40.0 2.0
    vertex 100.0 0.0 2.0
  endloop
endfacet
facet normal 0.0 0.999999999995 0.0
  outer loop
    vertex 100.0 40.0 0.0
    vertex 0.0 40.0 0.0
    vertex 0.0 40.0 2.0
  endloop
endfacet
facet normal 0.0 0.999999999995 -0.0
  outer loop
    vertex 100.0 40.0 0.0
    vertex 0.0 40.0 2.0
    vertex 100.0 40.0 2.0
  endloop
endfacet
facet normal -0.9999999999875 0.0 0.0
  outer loop
    vertex 0.0 40.0 0.0
    vertex 0.0 0.0 0.0
    vertex 0.0 0.0 2.0
  endloop
endfacet
facet normal -0.9999999999875 0.0 0.0
  outer loop
    vertex 0.0 40.0 0.0
    vertex 0.0 0.0 2.0
    vertex 0.0 40.0 2.0
  endloop
endfacet
facet normal 0.0 0.0 0.9999999999375
  outer loop
    vertex 47.74600728242625 31.254346775861045 1.0
    vertex 51.74600728242625 31.254346775861045 1.0
    vertex 51.74600728242625 35.254346775861045 1.0
  endloop
endfacet
facet normal 0.0 0.0 0.9999999999375
  outer loop
    vertex 47.74600728242625 31.254346775861045 1.0
    vertex 51.74600728242625 35.254346775861045 1.0
    vertex 47.74600728242625 35.254346775861045 1.0
  endloop
endfacet
facet normal 0.0 0.0 0.9999999999375
  outer loop
    vertex 47.74600728242625 31.254346775861045 11.0
    vertex 51.74600728242625 31.254346775861045 11.0
    vertex 51.74600728242625 35.254346775861045 11.0
  endloop
endfacet
facet normal 0.0 0.0 0.9999999999375
  outer loop
    vertex 47.74600728242625 31.254346775861045 11.0
    vertex 51.74600728242625 35.254346775861045 11.0
    vertex 47.74600728242625 35.254346775861045 11.0
  endloop
endfacet
facet normal 0.0 -0.9999999999750001 0.0
  outer loop
    vertex 47.74600728242625 31.254346775861045 1.0
    vertex 51.74600728242625 31.254346775861045 1.0
    vertex 51.74600728242625 31.254346775861045 11.0
  endloop
endfacet
facet normal 0.0 -0.9999999999750001 0.0
  outer loop
    vertex 47.74600728242625 31.254346775861045 1.0
    vertex 51.74600728242625 31.254346775861045 11.0
    vertex 47.74600728242625 31.254346775861045 11.0
  endloop
endfacet
facet normal 0.9999999999750001 0.0 0.0
  outer loop
    vertex 51.74600728242625 31.254346775861045 1.0
    vertex 51.74600728242625 35.254346775861045 1.0
    vertex 51.74600728242625 35.254346775861045 11.0
  endloop
endfacet
facet normal 0.9999999999750001 0.0 0.0
  outer loop
    vertex 51.74600728242625 31.254346775861045 1.0
    vertex 51.74600728242625 35.254346775861045 11.0
    vertex 51.74600728242625 31.254346775861045 11.0
  endloop
endfacet
facet normal 0.0 0.9999999999750001 0.0
  outer loop
    vertex 51.74600728242625 35.254346775861045 1.0
    vertex 47.74600728242625 35.254346775861045 1.0
    vertex 47.74600728242625 35.254346775861045 11.0
  endloop
endfacet
facet normal 0.0 0.9999999999750001 -0.0
  outer loop
    vertex 51.74600728242625 35.254346775861045 1.0
    vertex 47.74600728242625 35.254346775861045 11.0
    vertex 51.74600728242625 35.254346775861045 11.0
  endloop
endfacet
facet normal -0.9999999999750001 0.0 0.0
  outer loop
    vertex 47.74600728242625 35.254346775861045 1.0
    vertex 47.74600728242625 31.254346775861045 1.0
    vertex 47.74600728242625 31.254346775861045 11.0
  endloop
endfacet
facet normal -0.9999999999750001 0.0 0.0
  outer loop
    vertex 47.74600728242625 35.254346775861045 1.0
    vertex 47.74600728242625 31.254346775861045 11.0
    vertex 47.74600728242625 35.254346775861045 11.0
  endloop
endfacet
facet normal 0.0 0.0 0.9999999999375
  outer loop
    vertex 45.88583838408468 31.563051640343105 1.0
    vertex 49.88583838408468 31.563051640343105 1.0
    vertex 49.88583838408468 35.563051640343105 1.0
  endloop
endfacet
facet normal 0.0 0.0 0.9999999999375
  outer loop
    vertex 45.88583838408468 31.563051640343105 1.0
    vertex 49.88583838408468 35.563051640343105 1.0
    vertex 45.88583838408468 35.563051640343105 1.0
  endloop
endfacet
facet normal 0.0 0.0 0.9999999999375
  outer loop
    vertex 45.88583838408468 31.563051640343105 11.0
    vertex 49.88583838408468 31.563051640343105 11.0
    vertex 49.88583838408468 35.563051640343105 11.0
  endloop
endfacet
facet normal 0.0 0.0 0.9999999999375
  outer loop
    vertex 45.88583838408468 31.563051640343105 11.0
    vertex 49.88583838408468 35.563051640343105 11.0
    vertex 45.88583838408468 35.563051640343105 11.0
  endloop
endfacet
facet normal 0.0 -0.9999999999750001 0.0
  outer loop
    vertex 45.88583838408468 31.563051640343105 1.0
    vertex 49.88583838408468 31.563051640343105 1.0
    vertex 49.88583838408468 31.563051640343105 11.0
  endloop
endfacet
facet normal 0.0 -0.9999999999750001 0.0
  outer loop
    vertex 45.88583838408468 31.563051640343105 1.0
    vertex 49.88583838408468 31.563051640343105 11.0
    vertex 45.88583838408468 31.563051640343105 11.0
  endloop
endfacet
facet normal 0.9999999999750001 0.0 0.0
  outer loop
    vertex 49.88583838408468 31.563051640343105 1.0
    vertex 49.88583838408468 35.563051640343105 1.0
    vertex 49.88583838408468 35.563051640343105 11.0
  endloop
endfacet
facet normal 0.9999999999750001 0.0 0.0
  outer loop
    vertex 49.88583838408468 31.563051640343105 1.0
    vertex 49.88583838408468 35.563051640343105 11.0
    vertex 49.88583838408468 31.563051640343105 11.0
  endloop
endfacet
facet normal 0.0 0.9999999999750001 0.0
  outer loop
    vertex 49.88583838408468 35.563051640343105 1.0
    vertex 45.88583838408468 35.563051640343105 1.0
    vertex 45.88583838408468 35.563051640343105 11.0
  endloop
endfacet
facet normal 0.0 0.9999999999750001 -0.0
  outer loop
    vertex 49.88583838408468 35.563051640343105 1.0
    vertex 45.88583838408468 35.563051640343105 11.0
    vertex 49.88583838408468 35.563051640343105 11.0
  endloop
endfacet
facet normal -0.9999999999750001 0.0 0.0
  outer loop
    vertex 45.88583838408468 35.563051640343105 1.0
    vertex 45.88583838408468 31.563051640343105 1.0
    vertex 45.88583838408468 31.563051640343105 11.0
  endloop
endfacet
facet normal -0.9999999999750001 0.0 0.0
  outer loop
    vertex 45.88583838408468 35.563051640343105 1.0
    vertex 45.88583838408468 31.563051640343105 11.0
    vertex 45.88583838408468 35.563051640343105 11.0
  endloop
endfacet
facet normal 0.0 0.0 0.9999999999375
  outer loop
    vertex 39.62554986646579 7.993640577610574 1.0
    vertex 43.62554986646579 7.993640577610574 1.0
    vertex 43.62554986646579 11.993640577610574 1.0
  endloop
endfacet
facet normal 0.0 0.0 0.9999999999375
  outer loop
    vertex 39.62554986646579 7.993640577610574 1.0
    vertex 43.62554986646579 11.993640577610574 1.0
    vertex 39.62554986646579 11.993640577610574 1.0
  endloop
endfacet
facet normal 0.0 0.0 0.9999999999375
  outer loop
    vertex 39.62554986646579 7.993640577610574 11.0
    vertex 43.62554986646579 7.993640577610574 11.0
    vertex 43.62554986646579 11.993640577610574 11.0
  endloop
endfacet
facet normal 0.0 0.0 0.9999999999375
  outer loop
    vertex 39.62554986646579 7.993640577610574 11.0
    vertex 43.62554986646579 11.993640577610574 11.0
    vertex 39.62554986646579 11.993640577610574 11.0
  endloop
endfacet
facet normal 0.0 -0.9999999999750001 0.0
  outer loop
    vertex 39.62554986646579 7.993640577610574 1.0
    vertex 43.62554986646579 7.993640577610574 1.0
    vertex 43.62554986646579 7.993640577610574 11.0
  endloop
endfacet
facet normal 0.0 -0.9999999999750001 0.0
  outer loop
    vertex 39.62554986646579 7.993640577610574 1.0
    vertex 43.62554986646579 7.993640577610574 11.0
    vertex 39.62554986646579 7.993640577610574 11.0
  endloop
endfacet
facet normal 0.9999999999750001 0.0 0.0
  outer loop
    vertex 43.62554986646579 7.993640577610574 1.0
    vertex 43.62554986646579 11.993640577610574 1.0
    vertex 43.62554986646579 11.993640577610574 11.0
  endloop
endfacet
facet normal 0.9999999999750001 0.0 0.0
  outer loop
    vertex 43.62554986646579 7.993640577610574 1.0
    vertex 43.62554986646579 11.993640577610574 11.0
    vertex 43.62554986646579 7.993640577610574 11.0
  endloop
endfacet
facet normal 0.0 0.9999999999750001 0.0
  outer loop
    vertex 43.62554986646579 11.993640577610574 1.0
    vertex 39.62554986646579 11.993640577610574 1.0
    vertex 39.62554986646579 11.993640577610574 11.0
  endloop
endfacet
facet normal 0.0 0.9999999999750001 -0.0
  outer loop
    vertex 43.62554986646579 11.993640577610574 1.0
    vertex 39.62554986646579 11.993640577610574 11.0
    vertex 43.62554986646579 11.993640577610574 11.0
  endloop
endfacet
facet normal -0.9999999999750001 0.0 0.0
  outer loop
    vertex 39.62554986646579 11.993640577610574 1.0
    vertex 39.62554986646579 7.993640577610574 1.0
    vertex 39.62554986646579 7.993640577610574 11.0
  endloop
endfacet
facet normal -0.9999999999750001 0.0 0.0
  outer loop
    vertex 39.62554986646579 11.993640577610574 1.0
    vertex 39.62554986646579 7.993640577610574 11.0
    vertex 39.62554986646579 11.993640577610574 11.0
  endloop
endfacet
facet normal 0.0 0.0 0.9999999999375
  outer loop
    vertex 31.96826762192014 8.759129101139825 1.0
    vertex 35.96826762192014 8.759129101139825 1.0
    vertex 35.96826762192014 12.759129101139825 1.0
  endloop
endfacet
facet normal 0.0 0.0 0.9999999999375
  outer loop
    vertex 31.96826762192014 8.759129101139825 1.0
    vertex 35.96826762192014 12.759129101139825 1.0
    vertex 31.96826762192014 12.759129101139825 1.0
  endloop
endfacet
facet normal 0.0 0.0 0.9999999999375
  outer loop
    vertex 31.96826762192014 8.759129101139825 11.0
    vertex 35.96826762192014 8.759129101139825 11.0
    vertex 35.96826762192014 12.759129101139825 11.0
  endloop
endfacet
facet normal 0.0 0.0 0.9999999999375
  outer loop
    vertex 31.96826762192014 8.759129101139825 11.0
    vertex 35.96826762192014 12.759129101139825 11.0
    vertex 31.96826762192014 12.759129101139825 11.0
  endloop
endfacet
facet normal 0.0 -0.9999999999750001 0.0
  outer loop
    vertex 31.96826762192014 8.759129101139825 1.0
    vertex 35.96826762192014 8.759129101139825 1.0
    vertex 35.96826762192014 8.759129101139825 11.0
  endloop
endfacet
facet normal 0.0 -0.9999999999750001 0.0
  outer loop
    vertex 31.96826762192014 8.759129101139825 1.0
    vertex 35.96826762192014 8.759129101139825 11.0
    vertex 31.96826762192014 8.759129101139825 11.0
  endloop
endfacet
facet normal 0.9999999999750001 0.0 0.0
  outer loop
    vertex 35.96826762192014 8.759129101139825 1.0
    vertex 35.96826762192014 12.759129101139825 1.0
    vertex 35.96826762192014 12.759129101139825 11.0
  endloop
endfacet
facet normal 0.9999999999750001 0.0 0.0
  outer loop
    vertex 35.96826762192014 8.759129101139825 1.0
    vertex 35.96826762192014 12.759129101139825 11.0
    vertex 35.96826762192014 8.759129101139825 11.0
  endloop
endfacet
facet normal 0.0 0.9999999999750001 0.0
  outer loop
    vertex 35.96826762192014 12.759129101139825 1.0
    vertex 31.96826762192014 12.759129101139825 1.0
    vertex 31.96826762192014 12.759129101139825 11.0
  endloop
endfacet
facet normal 0.0 0.9999999999750001 -0.0
  outer loop
    vertex 35.96826762192014 12.759129101139825 1.0
    vertex 31.96826762192014 12.759129101139825 11.0
    vertex 35.96826762192014 12.759129101139825 11.0
  endloop
endfacet
facet normal -0.9999999999750001 0.0 0.0
  outer loop
    vertex 31.96826762192014 12.759129101139825 1.0
    vertex 31.96826762192014 8.759129101139825 1.0
    vertex 31.96826762192014 8.759129101139825 11.0
  endloop
endfacet
facet normal -0.9999999999750001 0.0 0.0
  outer loop
    vertex 31.96826762192014 12.759129101139825 1.0
    vertex 31.96826762192014 8.759129101139825 11.0
    vertex 31.96826762192014 12.759129101139825 11.0
  endloop
endfacet
facet normal 0.0 0.0 0.9999999999375
  outer loop
    vertex 39.53662371787078 31.270357598760697 1.0
    vertex 43.53662371787078 31.270357598760697 1.0
    vertex 43.53662371787078 35.2703575987607 1.0
  endloop
endfacet
facet normal 0.0 0.0 0.9999999999375
  outer loop
    vertex 39.53662371787078 31.270357598760697 1.0
    vertex 43.53662371787078 35.2703575987607 1.0
    vertex 39.53662371787078 35.2703575987607 1.0
  endloop
endfacet
facet normal 0.0 0.0 0.9999999999375
  outer loop
    vertex 39.53662371787078 31.270357598760697 11.0
    vertex 43.53662371787078 31.270357598760697 11.0
    vertex 43.53662371787078 35.2703575987607 11.0
  endloop
endfacet
facet normal 0.0 0.0 0.9999999999375
  outer loop
    vertex 39.53662371787078 31.270357598760697 11.0
    vertex 43.53662371787078 35.2703575987607 11.0
    vertex 39.53662371787078 35.2703575987607 11.0
  endloop
endfacet
facet normal 0.0 -0.9999999999750001 0.0
  outer loop
    vertex 39.53662371787078 31.270357598760697 1.0
    vertex 43.53662371787078 31.270357598760697 1.0
    vertex 43.53662371787078 31.270357598760697 11.0
  endloop
endfacet
facet normal 0.0 -0.9999999999750001 0.0
  outer loop
    vertex 39.53662371787078 31.270357598760697 1.0
    vertex 43.53662371787078 31.270357598760697 11.0
    vertex 39.53662371787078 31.270357598760697 11.0
  endloop
endfacet
facet normal 0.9999999999750001 0.0 0.0
  outer loop
    vertex 43.53662371787078 31.270357598760697 1.0
    vertex 43.53662371787078 35.2703575987607 1.0
    vertex 43.53662371787078 35.2703575987607 11.0
  endloop
endfacet
facet normal 0.9999999999750001 0.0 0.0
  outer loop
    vertex 43.53662371787078 31.270357598760697 1.0
    vertex 43.53662371787078 35.2703575987607 11.0
    vertex 43.53662371787078 31.270357598760697 11.0
  endloop
endfacet
facet normal 0.0 0.9999999999750001 0.0
  outer loop
    vertex 43.53662371787078 35.2703575987607 1.0
    vertex 39.53662371787078 35.2703575987607 1.0
    vertex 39.53662371787078 35.2703575987607 11.0
  endloop
endfacet
facet normal 0.0 0.9999999999750001 -0.0
  outer loop
    vertex 43.53662371787078 35.2703575987607 1.0
    vertex 39.53662371787078 35.2703575987607 11.0
    vertex 43.53662371787078 35.2703575987607 11.0
  endloop
endfacet
facet normal -0.9999999999750001 0.0 0.0
  outer loop
    vertex 39.53662371787078 35.2703575987607 1.0
    vertex 39.53662371787078 31.270357598760697 1.0
    vertex 39.53662371787078 31.270357598760697 11.0
  endloop
endfacet
facet normal -0.9999999999750001 0.0 0.0
  outer loop
    vertex 39.53662371787078 35.2703575987607 1.0
    vertex 39.53662371787078 31.270357598760697 11.0
    vertex 39.53662371787078 35.2703575987607 11.0
  endloop
endfacet
facet normal 0.0 0.0 0.9999999999375
  outer loop
    vertex 0.12217500097576872 17.16292710359968 1.0
    vertex 4.122175000975769 17.16292710359968 1.0
    vertex 4.122175000975769 21.16292710359968 1.0
  endloop
endfacet
facet normal 0.0 0.0 0.9999999999375
  outer loop
    vertex 0.12217500097576872 17.16292710359968 1.0
    vertex 4.122175000975769 21.16292710359968 1.0
    vertex 0.12217500097576872 21.16292710359968 1.0
  endloop
endfacet
facet normal 0.0 0.0 0.9999999999375
  outer loop
    vertex 0.12217500097576872 17.16292710359968 11.0
    vertex 4.122175000975769 17.16292710359968 11.0
    vertex 4.122175000975769 21.16292710359968 11.0
  endloop
endfacet
facet normal 0.0 0.0 0.9999999999375
  outer loop
    vertex 0.12217500097576872 17.16292710359968 11.0
    vertex 4.122175000975769 21.16292710359968 11.0
    vertex 0.12217500097576872 21.16292710359968 11.0
  endloop
endfacet
facet normal 0.0 -0.9999999999750001 0.0
  outer loop
    vertex 0.12217500097576872 17.16292710359968 1.0
    vertex 4.122175000975769 17.16292710359968 1.0
    vertex 4.122175000975769 17.16292710359968 11.0
  endloop
endfacet
facet normal 0.0 -0.9999999999750001 0.0
  outer loop
    vertex 0.12217500097576872 17.16292710359968 1.0
    vertex 4.122175000975769 17.16292710359968 11.0
    vertex 0.12217500097576872 17.16292710359968 11.0
  endloop
endfacet
facet normal 0.9999999999750001 0.0 0.0
  outer loop
    vertex 4.122175000975769 17.16292710359968 1.0
    vertex 4.122175000975769 21.16292710359968 1.0
    vertex 4.122175000975769 21.16292710359968 11.0
  endloop
endfacet
facet normal 0.9999999999750001 0.0 0.0
  outer loop
    vertex 4.122175000975769 17.16292710359968 1.0
    vertex 4.122175000975769 21.16292710359968 11.0
    vertex 4.122175000975769 17.16292710359968 11.0
  endloop
endfacet
facet normal 0.0 0.9999999999750001 0.0
  outer loop
    vertex 4.122175000975769 21.16292710359968 1.0
    vertex 0.12217500097576872 21.16292710359968 1.0
    vertex 0.12217500097576872 21.16292710359968 11.0
  endloop
endfacet
facet normal 0.0 0.9999999999750001 -0.0
  outer loop
    vertex 4.122175000975769 21.16292710359968 1.0
    vertex 0.12217500097576872 21.16292710359968 11.0
    vertex 4.122175000975769 21.16292710359968 11.0
  endloop
endfacet
facet normal -0.9999999999750001 0.0 0.0
  outer loop
    vertex 0.12217500097576872 21.16292710359968 1.0
    vertex 0.12217500097576872 17.16292710359968 1.0
    vertex 0.12217500097576872 17.16292710359968 11.0
  endloop
endfacet
facet normal -0.9999999999750001 0.0 0.0
  outer loop
    vertex 0.12217500097576872 21.16292710359968 1.0
    vertex 0.12217500097576872 17.16292710359968 11.0
    vertex 0.12217500097576872 21.16292710359968 11.0
  endloop
endfacet
facet normal 0.0 0.0 0.9999999999375
  outer loop
    vertex 30.29947048382367 -1.5878235452711555 1.0
    vertex 34.29947048382367 -1.5878235452711555 1.0
    vertex 34.29947048382367 2.4121764547288445 1.0
  endloop
endfacet
facet normal 0.0 0.0 0.9999999999375
  outer loop
    vertex 30.29947048382367 -1.5878235452711555 1.0
    vertex 34.29947048382367 2.4121764547288445 1.0
    vertex 30.29947048382367 2.4121764547288445 1.0
  endloop
endfacet
facet normal 0.0 0.0 0.9999999999375
  outer loop
    vertex 30.29947048382367 -1.5878235452711555 11.0
    vertex 34.29947048382367 -1.5878235452711555 11.0
    vertex 34.29947048382367 2.4121764547288445 11.0
  endloop
endfacet
facet normal 0.0 0.0 0.9999999999375
  outer loop
    vertex 30.29947048382367 -1.5878235452711555 11.0
    vertex 34.29947048382367 2.4121764547288445 11.0
    vertex 30.29947048382367 2.4121764547288445 11.0
  endloop
endfacet
facet normal 0.0 -0.9999999999750001 0.0
  outer loop
    vertex 30.29947048382367 -1.5878235452711555 1.0
    vertex 34.29947048382367 -1.5878235452711555 1.0
    vertex 34.29947048382367 -1.5878235452711555 11.0
  endloop
endfacet
facet normal 0.0 -0.9999999999750001 0.0
  outer loop
    vertex 30.29947048382367 -1.5878235452711555 1.0
    vertex 34.29947048382367 -1.5878235452711555 11.0
    vertex 30.29947048382367 -1.5878235452711555 11.0
  endloop
endfacet
facet normal 0.9999999999750001 0.0 0.0
  outer loop
    vertex 34.29947048382367 -1.5878235452711555 1.0
    vertex 34.29947048382367 2.4121764547288445 1.0
    vertex 34.29947048382367 2.4121764547288445 11.0
  endloop
endfacet
facet normal 0.9999999999750001 0.0 0.0
  outer loop
    vertex 34.29947048382367 -1.5878235452711555 1.0
    vertex 34.29947048382367 2.4121764547288445 11.0
    vertex 34.29947048382367 -1.5878235452711555 11.0
  endloop
endfacet
facet normal 0.0 0.9999999999750001 0.0
  outer loop
    vertex 34.29947048382367 2.4121764547288445 1.0
    vertex 30.29947048382367 2.4121764547288445 1.0
    vertex 30.29947048382367 2.4121764547288445 11.0
  endloop
endfacet
facet normal 0.0 0.9999999999750001 -0.0
  outer loop
    vertex 34.29947048382367 2.4121764547288445 1.0
    vertex 30.29947048382367 2.4121764547288445 11.0
    vertex 34.29947048382367 2.4121764547288445 11.0
  endloop
endfacet
facet normal -0.9999999999750001 0.0 0.0
  outer loop
    vertex 30.29947048382367 2.4121764547288445 1.0
    vertex 30.29947048382367 -1.5878235452711555 1.0
    vertex 30.29947048382367 -1.5878235452711555 11.0
  endloop
endfacet
facet normal -0.9999999999750001 0.0 0.0
  outer loop
    vertex 30.29947048382367 2.4121764547288445 1.0
    vertex 30.29947048382367 -1.5878235452711555 11.0
    vertex 30.29947048382367 2.4121764547288445 11.0
  endloop
endfacet
facet normal 0.0 0.0 0.9999999999375
  outer loop
    vertex 11.176522236981228 2.5075361347953304 1.0
    vertex 15.176522236981228 2.5075361347953304 1.0
    vertex 15.176522236981228 6.50753613479533 1.0
  endloop
endfacet
facet normal 0.0 0.0 0.9999999999375
  outer loop
    vertex 11.176522236981228 2.5075361347953304 1.0
    vertex 15.176522236981228 6.50753613479533 1.0
    vertex 11.176522236981228 6.50753613479533 1.0
  endloop
endfacet
facet normal 0.0 0.0 0.9999999999375
  outer loop
    vertex 11.176522236981228 2.5075361347953304 11.0
    vertex 15.176522236981228 2.5075361347953304 11.0
    vertex 15.176522236981228 6.50753613479533 11.0
  endloop
endfacet
facet normal 0.0 0.0 0.9999999999375
  outer loop
    vertex 11.176522236981228 2.5075361347953304 11.0
    vertex 15.176522236981228 6.50753613479533 11.0
    vertex 11.176522236981228 6.50753613479533 11.0
  endloop
endfacet
facet normal 0.0 -0.9999999999750001 0.0
  outer loop
    vertex 11.176522236981228 2.5075361347953304 1.0
    vertex 15.176522236981228 2.5075361347953304 1.0
    vertex 15.176522236981228 2.5075361347953304 11.0
  endloop
endfacet
facet normal 0.0 -0.9999999999750001 0.0
  outer loop
    vertex 11.176522236981228 2.5075361347953304 1.0
    vertex 15.176522236981228 2.5075361347953304 11.0
    vertex 11.176522236981228 2.5075361347953304 11.0
  endloop
endfacet
facet normal 0.9999999999750001 0.0 0.0
  outer loop
    vertex 15.176522236981228 2.5075361347953304 1.0
    vertex 15.176522236981228 6.50753613479533 1.0
    vertex 15.176522236981228 6.50753613479533 11.0
  endloop
endfacet
facet normal 0.9999999999750001 0.0 0.0
  outer loop
    vertex 15.176522236981228 2.5075361347953304 1.0
    vertex 15.176522236981228 6.50753613479533 11.0
    vertex 15.176522236981228 2.5075361347953304 11.0
  endloop
endfacet
facet normal 0.0 0.9999999999750001 0.0
  outer loop
    vertex 15.176522236981228 6.50753613479533 1.0
    vertex 11.176522236981228 6.50753613479533 1.0
    vertex 11.176522236981228 6.50753613479533 11.0
  endloop
endfacet
facet normal 0.0 0.9999999999750001 -0.0
  outer loop
    vertex 15.176522236981228 6.50753613479533 1.0
    vertex 11.176522236981228 6.50753613479533 11.0
    vertex 15.176522236981228 6.50753613479533 11.0
  endloop
endfacet
facet normal -0.9999999999750001 0.0 0.0
  outer loop
    vertex 11.176522236981228 6.50753613479533 1.0
    vertex 11.176522236981228 2.5075361347953304 1.0
    vertex 11.176522236981228 2.5075361347953304 11.0
  endloop
endfacet
facet normal -0.9999999999750001 0.0 0.0
  outer loop
    vertex 11.176522236981228 6.50753613479533 1.0
    vertex 11.176522236981228 2.5075361347953304 11.0
    vertex 11.176522236981228 6.50753613479533 11.0
  endloop
endfacet
facet normal 0.0 0.0 0.9999999999375001
  outer loop
    vertex 0.2959464373754419 5.89813531021061 1.0
    vertex 4.2959464373754415 5.89813531021061 1.0
    vertex 4.2959464373754415 9.898135310210609 1.0
  endloop
endfacet
facet normal 0.0 0.0 0.9999999999375001
  outer loop
    vertex 0.2959464373754419 5.89813531021061 1.0
    vertex 4.2959464373754415 9.898135310210609 1.0
    vertex 0.2959464373754419 9.898135310210609 1.0
  endloop
endfacet
facet normal 0.0 0.0 0.9999999999375001
  outer loop
    vertex 0.2959464373754419 5.89813531021061 11.0
    vertex 4.2959464373754415 5.89813531021061 11.0
    vertex 4.2959464373754415 9.898135310210609 11.0
  endloop
endfacet
facet normal 0.0 0.0 0.9999999999375001
  outer loop
    vertex 0.2959464373754419 5.89813531021061 11.0
    vertex 4.2959464373754415 9.898135310210609 11.0
    vertex 0.2959464373754419 9.898135310210609 11.0
  endloop
endfacet
facet normal 0.0 -0.9999999999750001 0.0
  outer loop
    vertex 0.2959464373754419 5.89813531021061 1.0
    vertex 4.2959464373754415 5.89813531021061 1.0
    vertex 4.2959464373754415 5.89813531021061 11.0
  endloop
endfacet
facet normal 0.0 -0.9999999999750001 0.0
  outer loop
    vertex 0.2959464373754419 5.89813531021061 1.0
    vertex 4.2959464373754415 5.89813531021061 11.0
    vertex 0.2959464373754419 5.89813531021061 11.0
  endloop
endfacet
facet normal 0.9999999999750001 0.0 0.0
  outer loop
    vertex 4.2959464373754415 5.89813531021061 1.0
    vertex 4.2959464373754415 9.898135310210609 1.0
    vertex 4.2959464373754415 9.898135310210609 11.0
  endloop
endfacet
facet normal 0.9999999999750001 0.0 0.0
  outer loop
    vertex 4.2959464373754415 5.89813531021061 1.0
    vertex 4.2959464373754415 9.898135310210609 11.0
    vertex 4.2959464373754415 5.89813531021061 11.0
  endloop
endfacet
facet normal 0.0 0.9999999999750001 0.0
  outer loop
    vertex 4.2959464373754415 9.898135310210609 1.0
    vertex 0.2959464373754419 9.898135310210609 1.0
    vertex 0.2959464373754419 9.898135310210609 11.0
  endloop
endfacet
facet normal 0.0 0.9999999999750001 -0.0
  outer loop
    vertex 4.2959464373754415 9.898135310210609 1.0
    vertex 0.2959464373754419 9.898135310210609 11.0
    vertex 4.2959464373754415 9.898135310210609 11.0
  endloop
endfacet
facet normal -0.9999999999750001 0.0 0.0
  outer loop
    vertex 0.2959464373754419 9.898135310210609 1.0
    vertex 0.2959464373754419 5.89813531021061 1.0
    vertex 0.2959464373754419 5.89813531021061 11.0
  endloop
endfacet
facet normal -0.9999999999750001 0.0 0.0
  outer loop
    vertex 0.2959464373754419 9.898135310210609 1.0
    vertex 0.2959464373754419 5.89813531021061 11.0
    vertex 0.2959464373754419 9.898135310210609 11.0
  endloop
endfacet
facet normal 0.0 0.0 0.9999999999375
  outer loop
    vertex 97.15026295378274 4.938305133328946 1.0
    vertex 101.15026295378274 4.938305133328946 1.0
    vertex 101.15026295378274 8.938305133328946 1.0
  endloop
endfacet
facet normal 0.0 0.0 0.9999999999375
  outer loop
    vertex 97.15026295378274 4.938305133328946 1.0
    vertex 101.15026295378274 8.938305133328946 1.0
    vertex 97.15026295378274 8.938305133328946 1.0
  endloop
endfacet
facet normal 0.0 0.0 0.9999999999375
  outer loop
    vertex 97.15026295378274 4.938305133328946 11.0
    vertex 101.15026295378274 4.938305133328946 11.0
    vertex 101.15026295378274 8.938305133328946 11.0
  endloop
endfacet
facet normal 0.0 0.0 0.9999999999375
  outer loop
    vertex 97.15026295378274 4.938305133328946 11.0
    vertex 101.15026295378274 8.938305133328946 11.0
    vertex 97.15026295378274 8.938305133328946 11.0
  endloop
endfacet
facet normal 0.0 -0.9999999999750001 0.0
  outer loop
    vertex 97.15026295378274 4.938305133328946 1.0
    vertex 101.15026295378274 4.938305133328946 1.0
    vertex 101.15026295378274 4.938305133328946 11.0
  endloop
endfacet
facet normal 0.0 -0.9999999999750001 0.0
  outer loop
    vertex 97.15026295378274 4.938305133328946 1.0
    vertex 101.15026295378274 4.938305133328946 11.0
    vertex 97.15026295378274 4.938305133328946 11.0
  endloop
endfacet
facet normal 0.9999999999750001 0.0 0.0
  outer loop
    vertex 101.15026295378274 4.938305133328946 1.0
    vertex 101.15026295378274 8.938305133328946 1.0
    vertex 101.15026295378274 8.938305133328946 11.0
  endloop
endfacet
facet normal 0.9999999999750001 0.0 0.0
  outer loop
    vertex 101.15026295378274 4.938305133328946 1.0
    vertex 101.15026295378274 8.938305133328946 11.0
    vertex 101.15026295378274 4.938305133328946 11.0
  endloop
endfacet
facet normal 0.0 0.9999999999750001 0.0
  outer loop
    vertex 101.15026295378274 8.938305133328946 1.0
    vertex 97.15026295378274 8.938305133328946 1.0
    vertex 97.15026295378274 8.938305133328946 11.0
  endloop
endfacet
facet normal 0.0 0.9999999999750001 -0.0
  outer loop
    vertex 101.15026295378274 8.938305133328946 1.0
    vertex 97.15026295378274 8.938305133328946 11.0
    vertex 101.15026295378274 8.938305133328946 11.0
  endloop
endfacet
facet normal -0.9999999999750001 0.0 0.0
  outer loop
    vertex 97.15026295378274 8.938305133328946 1.0
    vertex 97.15026295378274 4.938305133328946 1.0
    vertex 97.15026295378274 4.938305133328946 11.0
  endloop
endfacet
facet normal -0.9999999999750001 0.0 0.0
  outer loop
    vertex 97.15026295378274 8.938305133328946 1.0
    vertex 97.15026295378274 4.938305133328946 11.0
    vertex 97.15026295378274 8.938305133328946 11.0
  endloop
endfacet
facet normal 0.0 0.0 0.9999999999375
  outer loop
    vertex 8.529606329915717 18.08295756904995 1.0
    vertex 12.529606329915717 18.08295756904995 1.0
    vertex 12.529606329915717 22.08295756904995 1.0
  endloop
endfacet
facet normal 0.0 0.0 0.9999999999375
  outer loop
    vertex 8.529606329915717 18.08295756904995 1.0
    vertex 12.529606329915717 22.08295756904995 1.0
    vertex 8.529606329915717 22.08295756904995 1.0
  endloop
endfacet
facet normal 0.0 0.0 0.9999999999375
  outer loop
    vertex 8.529606329915717 18.08295756904995 11.0
    vertex 12.529606329915717 18.08295756904995 11.0
    vertex 12.529606329915717 22.08295756904995 11.0
  endloop
endfacet
facet normal 0.0 0.0 0.9999999999375
  outer loop
    vertex 8.529606329915717 18.08295756904995 11.0
    vertex 12.529606329915717 22.08295756904995 11.0
    vertex 8.529606329915717 22.08295756904995 11.0
  endloop
endfacet
facet normal 0.0 -0.9999999999750001 0.0
  outer loop
    vertex 8.529606329915717 18.08295756904995 1.0
    vertex 12.529606329915717 18.08295756904995 1.0
    vertex 12.529606329915717 18.08295756904995 11.0
  endloop
endfacet
facet normal 0.0 -0.9999999999750001 0.0
  outer loop
    vertex 8.529606329915717 18.08295756904995 1.0
    vertex 12.529606329915717 18.08295756904995 11.0
    vertex 8.529606329915717 18.08295756904995 11.0
  endloop
endfacet
facet normal 0.9999999999750001 0.0 0.0
  outer loop
    vertex 12.529606329915717 18.08295756904995 1.0
    vertex 12.529606329915717 22.08295756904995 1.0
    vertex 12.529606329915717 22.08295756904995 11.0
  endloop
endfacet
facet normal 0.9999999999750001 0.0 0.0
  outer loop
    vertex 12.529606329915717 18.08295756904995 1.0
    vertex 12.529606329915717 22.08295756904995 11.0
    vertex 12.529606329915717 18.08295756904995 11.0
  endloop
endfacet
facet normal 0.0 0.9999999999750001 0.0
  outer loop
    vertex 12.529606329915717 22.08295756904995 1.0
    vertex 8.529606329915717 22.08295756904995 1.0
    vertex 8.529606329915717 22.08295756904995 11.0
  endloop
endfacet
facet normal 0.0 0.9999999999750001 -0.0
  outer loop
    vertex 12.529606329915717 22.08295756904995 1.0
    vertex 8.529606329915717 22.08295756904995 11.0
    vertex 12.529606329915717 22.08295756904995 11.0
  endloop
endfacet
facet normal -0.9999999999750001 0.0 0.0
  outer loop
    vertex 8.529606329915717 22.08295756904995 1.0
    vertex 8.529606329915717 18.08295756904995 1.0
    vertex 8.529606329915717 18.08295756904995 11.0
  endloop
endfacet
facet normal -0.9999999999750001 0.0 0.0
  outer loop
    vertex 8.529606329915717 22.08295756904995 1.0
    vertex 8.529606329915717 18.08295756904995 11.0
    vertex 8.529606329915717 22.08295756904995 11.0
  endloop
endfacet
facet normal 0.0 0.0 0.9999999999375001
  outer loop
    vertex 22.697697696026836 0.7362567221711136 1.0
    vertex 26.697697696026836 0.7362567221711136 1.0
    vertex 26.697697696026836 4.736256722171113 1.0
  endloop
endfacet
facet normal 0.0 0.0 0.9999999999375001
  outer loop
    vertex 22.697697696026836 0.7362567221711136 1.0
    vertex 26.697697696026836 4.736256722171113 1.0
    vertex 22.697697696026836 4.736256722171113 1.0
  endloop
endfacet
facet normal 0.0 0.0 0.9999999999375001
  outer loop
    vertex 22.697697696026836 0.7362567221711136 11.0
    vertex 26.697697696026836 0.7362567221711136 11.0
    vertex 26.697697696026836 4.736256722171113 11.0
  endloop
endfacet
facet normal 0.0 0.0 0.9999999999375001
  outer loop
    vertex 22.697697696026836 0.7362567221711136 11.0
    vertex 26.697697696026836 4.736256722171113 11.0
    vertex 22.697697696026836 4.736256722171113 11.0
  endloop
endfacet
facet normal 0.0 -0.9999999999750001 0.0
  outer loop
    vertex 22.697697696026836 0.7362567221711136 1.0
    vertex 26.697697696026836 0.7362567221711136 1.0
    vertex 26.697697696026836 0.7362567221711136 11.0
  endloop
endfacet
facet normal 0.0 -0.9999999999750001 0.0
  outer loop
    vertex 22.697697696026836 0.7362567221711136 1.0
    vertex 26.697697696026836 0.7362567221711136 11.0
    vertex 22.697697696026836 0.7362567221711136 11.0
  endloop
endfacet
facet normal 0.9999999999750001 0.0 0.0
  outer loop
    vertex 26.697697696026836 0.7362567221711136 1.0
    vertex 26.697697696026836 4.736256722171113 1.0
    vertex 26.697697696026836 4.736256722171113 11.0
  endloop
endfacet
facet normal 0.9999999999750001 0.0 0.0
  outer loop
    vertex 26.697697696026836 0.7362567221711136 1.0
    vertex 26.697697696026836 4.736256722171113 11.0
    vertex 26.697697696026836 0.7362567221711136 11.0
  endloop
endfacet
facet normal 0.0 0.9999999999750001 0.0
  outer loop
    vertex 26.697697696026836 4.736256722171113 1.0
    vertex 22.697697696026836 4.736256722171113 1.0
    vertex 22.697697696026836 4.736256722171113 11.0
  endloop
endfacet
facet normal 0.0 0.9999999999750001 -0.0
  outer loop
    vertex 26.697697696026836 4.736256722171113 1.0
    vertex 22.697697696026836 4.736256722171113 11.0
    vertex 26.697697696026836 4.736256722171113 11.0
  endloop
endfacet
facet normal -0.9999999999750001 0.0 0.0
  outer loop
    vertex 22.697697696026836 4.736256722171113 1.0
    vertex 22.697697696026836 0.7362567221711136 1.0
    vertex 22.697697696026836 0.7362567221711136 11.0
  endloop
endfacet
facet normal -0.9999999999750001 0.0 0.0
  outer loop
    vertex 22.697697696026836 4.736256722171113 1.0
    vertex 22.697697696026836 0.7362567221711136 11.0
    vertex 22.697697696026836 4.736256722171113 11.0
  endloop
endfacet
endsolid ai5_lattice
